#!OML:ASF E:\Style4\Style4.ASF
:FULLY-SPECIFIED
:DEGREES
2955
root -0.0128671 17.6635 0.313772 -5.19694 18.1088 2.7084
lowerback 3.50962 4.36301 0.396149
upperback 3.9609 5.84283 0.0972739
thorax 2.14055 2.94072 -0.209912
lowerneck 5.27849 -3.95615 -5.26765
upperneck 1.62263 -5.54938 5.16161
head -0.0850032 -2.83549 2.62392
rclavicle 2.41275e-014 4.37326e-015
rhumerus 17.1934 13.6189 -78.3379
rradius 125.246
rwrist 23.5341
rhand 20.4079 -4.73718
rfingers 7.12502
rthumb 44.9148 -28.2702
lclavicle 2.41275e-014 4.37326e-015
lhumerus 27.8119 -17.863 73.0772
lradius 126.43
lwrist -10.8759
lhand 15.5988 38.2533
lfingers 7.12502
lthumb 40.415 63.3529
rfemur 2.79668 -7.07784 16.706
rtibia 28.4711
rfoot -24.6738 -22.0582
rtoes -6.28709
lfemur -3.53644 -5.18952 -21.3882
ltibia 28.493
lfoot -18.0078 -1.81295
ltoes -7.93048
2956
root -0.0169154 17.6641 0.308573 -5.27221 18.0721 2.60666
lowerback 3.53116 4.35304 0.453976
upperback 4.00735 5.83034 0.139117
thorax 2.17785 2.93558 -0.198211
lowerneck 5.22886 -3.94118 -5.26431
upperneck 1.6351 -5.52751 5.14457
head -0.0743511 -2.82387 2.61584
rclavicle -1.10798e-013 1.74931e-014
rhumerus 17.1935 13.7291 -78.278
rradius 125.25
rwrist 23.6906
rhand 20.1015 -4.70369
rfingers 7.12502
rthumb 44.6296 -28.3477
lclavicle -1.10798e-013 1.74931e-014
lhumerus 27.7273 -17.8377 73.0522
lradius 126.453
lwrist -10.8716
lhand 15.5643 38.4961
lfingers 7.12502
lthumb 40.3826 63.6055
rfemur 2.83476 -6.99627 16.8438
rtibia 28.4382
rfoot -24.7145 -22.0876
rtoes -6.34188
lfemur -3.52537 -5.19519 -21.2648
ltibia 28.4971
lfoot -18.0154 -1.89346
ltoes -7.31589
2957
root -0.0200691 17.6652 0.30351 -5.3354 18.0536 2.57173
lowerback 3.57095 4.33954 0.450376
upperback 4.04936 5.81214 0.175089
thorax 2.1948 2.92613 -0.160624
lowerneck 5.22374 -3.91854 -5.30065
upperneck 1.62697 -5.49894 5.13309
head -0.0769993 -2.80965 2.61846
rclavicle -1.16786e-015 3.97569e-016
rhumerus 17.1989 13.8863 -78.2055
rradius 125.244
rwrist 23.9018
rhand 19.7165 -4.59398
rfingers 7.12502
rthumb 44.2709 -28.3751
lclavicle -1.16786e-015 3.97569e-016
lhumerus 27.6399 -17.8297 73.0388
lradius 126.438
lwrist -10.9692
lhand 15.3755 38.8642
lfingers 7.12502
lthumb 40.205 64.0281
rfemur 2.8814 -6.93518 16.8943
rtibia 28.3967
rfoot -24.7762 -22.0913
rtoes -6.28726
lfemur -3.48644 -5.19175 -21.2223
ltibia 28.4929
lfoot -18.0111 -1.94202
ltoes -6.78399
2958
root -0.021213 17.6644 0.300028 -5.39733 18.0529 2.57971
lowerback 3.57509 4.32721 0.422163
upperback 4.09937 5.79518 0.20055
thorax 2.23859 2.91684 -0.116817
lowerneck 5.30781 -3.90781 -5.34094
upperneck 1.57986 -5.48918 5.11377
head -0.106361 -2.80575 2.62254
rclavicle -2.01766e-014 2.78299e-015
rhumerus 17.1721 13.9605 -78.1868
rradius 125.296
rwrist 23.95
rhand 19.652 -4.50614
rfingers 7.12502
rthumb 44.2107 -28.31
lclavicle -2.01766e-014 2.78299e-015
lhumerus 27.5132 -17.8552 73.075
lradius 126.454
lwrist -11.0272
lhand 15.2981 38.8897
lfingers 7.12502
lthumb 40.1322 64.0757
rfemur 2.9582 -6.95863 16.868
rtibia 28.36
rfoot -24.7224 -22.0785
rtoes -6.40797
lfemur -3.41147 -5.19666 -21.2432
ltibia 28.4959
lfoot -18.0021 -1.91197
ltoes -6.97405
2959
root -0.0212035 17.6636 0.29568 -5.4402 18.052 2.59112
lowerback 3.53567 4.32634 0.423114
upperback 4.15509 5.7944 0.199806
thorax 2.31838 2.91676 -0.111784
lowerneck 5.42267 -3.91838 -5.28312
upperneck 1.50252 -5.50276 5.05195
head -0.153123 -2.81296 2.59617
rclavicle 1.51822e-014 -7.55382e-015
rhumerus 17.1183 13.997 -78.212
rradius 125.36
rwrist 23.909
rhand 19.7375 -4.65541
rfingers 7.12502
rthumb 44.2904 -28.4291
lclavicle 1.51822e-014 -7.55382e-015
lhumerus 27.3677 -17.9607 73.1384
lradius 126.49
lwrist -10.9983
lhand 15.2312 38.8057
lfingers 7.12502
lthumb 40.0693 64.0109
rfemur 3.00164 -7.00271 16.8297
rtibia 28.353
rfoot -24.6641 -22.0679
rtoes -6.60645
lfemur -3.37392 -5.18973 -21.2604
ltibia 28.4918
lfoot -17.9363 -1.89179
ltoes -7.08705
2960
root -0.0217499 17.6626 0.289465 -5.43858 18.0353 2.59964
lowerback 3.50401 4.33989 0.453287
upperback 4.18629 5.81367 0.170179
thorax 2.37461 2.92782 -0.154251
lowerneck 5.48326 -3.94257 -5.19202
upperneck 1.4601 -5.53106 5.02015
head -0.178736 -2.82702 2.57173
rclavicle 2.93207e-014 -1.59028e-015
rhumerus 17.0794 13.9618 -78.231
rradius 125.436
rwrist 23.8661
rhand 19.9118 -4.67608
rfingers 7.12502
rthumb 44.4529 -28.3879
lclavicle 2.93207e-014 -1.59028e-015
lhumerus 27.2204 -18.1206 73.2065
lradius 126.523
lwrist -11.0921
lhand 15.2116 38.8762
lfingers 7.12502
lthumb 40.0508 64.0869
rfemur 2.98904 -7.02937 16.8044
rtibia 28.3445
rfoot -24.6192 -21.9963
rtoes -6.63991
lfemur -3.40271 -5.21513 -21.2771
ltibia 28.4986
lfoot -17.9623 -1.83644
ltoes -7.07137
2961
root -0.0252723 17.6615 0.283625 -5.44807 18.0211 2.62324
lowerback 3.55431 4.38129 0.449768
upperback 4.18873 5.86989 0.1238
thorax 2.35418 2.95674 -0.204288
lowerneck 5.52571 -4.00172 -5.08827
upperneck 1.44911 -5.60501 5.03885
head -0.1877 -2.86409 2.56113
rclavicle -7.13388e-014 5.96354e-015
rhumerus 17.0306 13.8498 -78.2437
rradius 125.511
rwrist 23.8413
rhand 19.9282 -4.54888
rfingers 7.12502
rthumb 44.4682 -28.2549
lclavicle -7.13388e-014 5.96354e-015
lhumerus 27.1212 -18.3508 73.216
lradius 126.538
lwrist -11.1958
lhand 15.1626 38.97
lfingers 7.12502
lthumb 40.0047 64.1946
rfemur 2.99854 -6.99866 16.7964
rtibia 28.3159
rfoot -24.5836 -22.042
rtoes -6.75395
lfemur -3.41016 -5.17527 -21.2889
ltibia 28.5099
lfoot -18.052 -1.84117
ltoes -7.16336
2962
root -0.030379 17.6624 0.279289 -5.49456 18.0083 2.55028
lowerback 3.5761 4.39995 0.507613
upperback 4.21872 5.89625 0.118586
thorax 2.37979 2.97181 -0.24175
lowerneck 5.55081 -4.04184 -4.98247
upperneck 1.4049 -5.65201 5.02212
head -0.206792 -2.88722 2.5383
rclavicle 1.24116e-013 -2.54444e-014
rhumerus 17.0589 13.8036 -78.2535
rradius 125.573
rwrist 23.8113
rhand 19.7857 -4.48174
rfingers 7.12502
rthumb 44.3354 -28.2384
lclavicle 1.24116e-013 -2.54444e-014
lhumerus 27.07 -18.4573 73.1715
lradius 126.511
lwrist -11.2758
lhand 15.2646 38.9625
lfingers 7.12502
lthumb 40.1006 64.1581
rfemur 3.01465 -6.92483 16.9107
rtibia 28.2788
rfoot -24.548 -22.1285
rtoes -6.71771
lfemur -3.4057 -5.14664 -21.1843
ltibia 28.5069
lfoot -17.9523 -1.92493
ltoes -6.92002
2963
root -0.0326829 17.664 0.275743 -5.57906 17.9651 2.43071
lowerback 3.57964 4.39282 0.61365
upperback 4.2922 5.88831 0.166527
thorax 2.45949 2.97047 -0.247191
lowerneck 5.4598 -4.0425 -5.01976
upperneck 1.44196 -5.65255 5.0459
head -0.177698 -2.88686 2.54956
rclavicle -2.38045e-014 6.75868e-015
rhumerus 17.1653 13.8351 -78.2274
rradius 125.607
rwrist 23.7874
rhand 19.6469 -4.43207
rfingers 7.12502
rthumb 44.206 -28.2377
lclavicle -2.38045e-014 6.75868e-015
lhumerus 27.0498 -18.3384 73.0947
lradius 126.446
lwrist -11.3662
lhand 15.223 38.9356
lfingers 7.12502
lthumb 40.0616 64.1431
rfemur 3.06874 -6.90823 17.0405
rtibia 28.2259
rfoot -24.4323 -22.1664
rtoes -6.88573
lfemur -3.35582 -5.11765 -21.0394
ltibia 28.4879
lfoot -17.8166 -2.04934
ltoes -6.33188
2964
root -0.0335055 17.6649 0.273146 -5.62653 17.9183 2.45933
lowerback 3.60035 4.37328 0.556075
upperback 4.3416 5.86101 0.202913
thorax 2.48911 2.95494 -0.177614
lowerneck 5.44794 -4.01692 -5.12613
upperneck 1.46134 -5.62475 5.06522
head -0.167565 -2.87349 2.5744
rclavicle 4.15211e-014 0
rhumerus 17.2671 13.9682 -78.1658
rradius 125.583
rwrist 23.8015
rhand 19.5844 -4.32917
rfingers 7.12502
rthumb 44.1477 -28.1567
lclavicle 4.15211e-014 0
lhumerus 26.9982 -18.1355 72.9106
lradius 126.333
lwrist -11.388
lhand 14.7319 38.9545
lfingers 7.12502
lthumb 39.5992 64.3002
rfemur 3.15328 -6.87977 17.0023
rtibia 28.1397
rfoot -24.4152 -22.1337
rtoes -6.73324
lfemur -3.28199 -5.1063 -21.069
ltibia 28.4672
lfoot -17.8699 -2.04046
ltoes -6.331
